<mxfile host="app.diagrams.net" agent="Mozilla/5.0 (iPhone; CPU iPhone OS 18_2_0 like Mac OS X) AppleWebKit/605.1.15 (KHTML, like Gecko) CriOS/131.0.6778.154 Mobile/15E148 Safari/604.1" version="26.0.2">
  <diagram name="Page-1" id="7swxiIERdkmfQ97HJBFa">
    <mxGraphModel>
      <root>
        <mxCell id="0" />
        <mxCell id="1" parent="0" />
        <mxCell id="2" value="Home" style="whiteSpace=wrap;strokeWidth=2;verticalAlign=top;" vertex="1" parent="1">
          <mxGeometry x="8" y="8" width="916" height="385" as="geometry" />
        </mxCell>
        <mxCell id="3" value="LoggedIn" style="fillColor=none;strokeColor=none;" vertex="1" parent="2">
          <mxGeometry x="46" y="112" width="96" height="40" as="geometry" />
        </mxCell>
        <mxCell id="4" value="Home Page" style="rounded=1;arcSize=40;strokeWidth=2" vertex="1" parent="2">
          <mxGeometry x="261" y="294" width="109" height="54" as="geometry" />
        </mxCell>
        <mxCell id="5" value="NotLoggedIn" style="whiteSpace=wrap;strokeWidth=2;verticalAlign=top;" vertex="1" parent="2">
          <mxGeometry x="192" y="46" width="689" height="173" as="geometry" />
        </mxCell>
        <mxCell id="6" value="LoginPage" style="fillColor=none;strokeColor=none;" vertex="1" parent="5">
          <mxGeometry x="58" y="53" width="131" height="54" as="geometry" />
        </mxCell>
        <mxCell id="7" value="Dashboard" style="fillColor=none;strokeColor=none;" vertex="1" parent="5">
          <mxGeometry x="289" y="84" width="134" height="54" as="geometry" />
        </mxCell>
        <mxCell id="8" value="Courses" style="fillColor=none;strokeColor=none;" vertex="1" parent="5">
          <mxGeometry x="524" y="53" width="115" height="54" as="geometry" />
        </mxCell>
        <mxCell id="9" value="" style="curved=1;startArrow=circle;startFill=0;endArrow=circle;endFill=0;exitX=1;exitY=0.83;entryX=0;entryY=0.5;" edge="1" parent="5" source="6" target="7">
          <mxGeometry relative="1" as="geometry">
            <Array as="points">
              <mxPoint x="239" y="111" />
            </Array>
          </mxGeometry>
        </mxCell>
        <mxCell id="10" value="" style="curved=1;startArrow=none;endArrow=circle;endFill=0;exitX=1;exitY=0.17;entryX=0;entryY=0.19;" edge="1" parent="5" source="6" target="8">
          <mxGeometry relative="1" as="geometry">
            <Array as="points">
              <mxPoint x="239" y="49" />
              <mxPoint x="474" y="49" />
            </Array>
          </mxGeometry>
        </mxCell>
        <mxCell id="11" value="" style="curved=1;startArrow=none;endArrow=block;exitX=1.01;exitY=0.5;entryX=0;entryY=0.81;" edge="1" parent="5" source="7" target="8">
          <mxGeometry relative="1" as="geometry">
            <Array as="points">
              <mxPoint x="474" y="111" />
            </Array>
          </mxGeometry>
        </mxCell>
        <mxCell id="12" value="" style="curved=1;startArrow=circle;startFill=0;endArrow=block;exitX=0.5;exitY=1;entryX=0;entryY=0.2;" edge="1" parent="2" source="3" target="4">
          <mxGeometry relative="1" as="geometry">
            <Array as="points">
              <mxPoint x="94" y="256" />
            </Array>
          </mxGeometry>
        </mxCell>
        <mxCell id="13" value="" style="curved=1;startArrow=none;endArrow=block;exitX=0.5;exitY=1;entryX=1;entryY=0.2;" edge="1" parent="2" source="5" target="4">
          <mxGeometry relative="1" as="geometry">
            <Array as="points">
              <mxPoint x="536" y="256" />
            </Array>
          </mxGeometry>
        </mxCell>
      </root>
    </mxGraphModel>
  </diagram>
</mxfile>
